<svg height="40" version="1.1" viewBox="8 8 24 24" width="40" xmlns="http://www.w3.org/2000/svg" xmlns:xlink="http://www.w3.org/1999/xlink">
<defs>
<path d="M8.72395833,0 C13.5420675,0 17.4479167,3.90584919 17.4479167,8.72395833 C17.4479167,13.5420675 13.5420675,17.4479167 8.72395833,17.4479167 C3.90584919,17.4479167 0,13.5420675 0,8.72395833 C0,3.90584919 3.90584919,0 8.72395833,0 Z M8.72395833,2.08333333 C5.05644242,2.08333333 2.08333333,5.05644242 2.08333333,8.72395833 C2.08333333,12.3914742 5.05644242,15.3645833 8.72395833,15.3645833 C12.3914742,15.3645833 15.3645833,12.3914742 15.3645833,8.72395833 C15.3645833,5.05644242 12.3914742,2.08333333 8.72395833,2.08333333 Z" id="uxs-a"></path>
</defs>
<g fill="none" fill-rule="evenodd" stroke="none" stroke-width="40">

<g transform="translate(7.5 7.5)">
<rect height="40" transform="matrix(1 0 0 -1 0 25)" width="40" x="0" y="0"></rect>
<use fill="#000" fill-rule="nonzero" transform="translate(2.083 2.083)" xlink:href="#uxs-a"></use>
<path d="M18.3511864,17.0091092 L21.6804813,20.3375505 C22.0872775,20.7443467 22.0872775,21.4038935 21.6804813,21.8106897 C21.2736852,22.2174858 20.6141383,22.2174858 20.2073422,21.8106897 L16.8644016,18.4680058 C17.4102844,18.0358061 17.9088871,17.5464995 18.3511864,17.0091092 Z M17.6100054,16.2675603 L17.5488096,16.3447799 C17.127964,16.8565355 16.649984,17.3195304 16.1246236,17.7240104 L16.1562096,17.7595571 C15.7494135,17.3527609 15.7494135,16.6932141 16.1562096,16.2864179 C16.5566196,15.8860079 17.201907,15.8797221 17.6100054,16.2675603 Z" fill="#000" fill-opacity=".6" fill-rule="nonzero"></path>
</g>
</g>
</svg>
