<svg height="40" version="1.1" viewBox="8 8 24 24" width="40" xmlns="http://www.w3.org/2000/svg">
<g fill="none" fill-rule="evenodd" stroke="none" stroke-width="40">

<path d="M19.7244629,24.1362772 C20.8466134,24.1362772 21.9410464,24.1995289 22.9802709,24.3193157 C22.7502651,25.7636977 22.4080502,27.0702409 21.9728631,28.1583161 C21.2721148,29.9103601 20.4763175,30.751928 20.0001014,30.751928 L20.0325618,30.749 L19.97354,30.7510758 C19.5179133,30.7221793 18.7901336,29.9580105 18.1280484,28.4024218 L18.0273397,28.1583161 C17.586437,27.0559505 17.2409647,25.7293407 17.0120276,24.2648661 C17.886833,24.1795631 18.7961638,24.1362772 19.7244629,24.1362772 Z M15.3706154,24.4718114 C15.766814,27.0346988 16.4936506,29.1861912 17.4203359,30.5992831 L17.4629014,30.664457 C17.3285559,30.6539686 17.1949429,30.6425578 17.0621169,30.6302377 C14.3857334,29.8921117 12.116777,28.1698072 10.66961,25.8768807 C10.9363313,25.739924 11.2354033,25.6038471 11.5671108,25.4711773 C12.6185825,25.0506302 13.8740707,24.7169052 15.2586159,24.4883169 Z M24.6152922,24.5625251 C25.8321382,24.7868004 26.9389928,25.0940857 27.881815,25.4711773 C28.3931328,25.6756842 28.8269044,25.8882865 29.1848426,26.098678 C27.7936836,28.1896199 25.7087832,29.7781189 23.2589075,30.5354445 C23.0331783,30.563418 22.8045037,30.589236 22.5733406,30.6122879 C23.4776537,29.2361337 24.1933752,27.1560137 24.5972663,24.6754814 Z M29.9939165,15.341264 C30.6545084,16.7564048 31.0234609,18.3350483 31.0234609,19.9998738 C31.0234609,21.6650938 30.6543335,23.244091 29.9934468,24.6594896 C28.7120306,23.9049774 26.9233576,23.2988052 24.8234588,22.9196264 C24.9137495,21.98396 24.9615942,21.0064318 24.9615942,20.000964 C24.9615942,18.9954961 24.9137495,18.0179679 24.8234418,17.0818349 C26.9073377,16.7060154 28.6847213,16.1061862 29.9645064,15.3592475 Z M9.89449673,15.584765 C11.2511332,16.2885273 13.0696632,16.8425355 15.1685385,17.1741776 C15.0834036,18.081333 15.0386086,19.0280691 15.0386086,20.000964 C15.0386086,20.9738588 15.0834036,21.9205949 15.1681181,22.8289826 C13.0701734,23.1593118 11.2520173,23.7131313 9.89548617,24.4166497 C9.3030694,23.0649946 8.97456181,21.5708015 8.97456181,19.9998738 C8.97456181,18.4534008 9.2929212,16.981292 9.86767108,15.6455224 Z M23.1850016,17.3235851 C23.2656253,18.1876139 23.3077633,19.0850563 23.3077633,20.000964 C23.3077633,20.9168716 23.2656253,21.814314 23.1850016,22.6783428 C22.0866543,22.5507121 20.925491,22.4824462 19.7244629,22.4824462 C18.7207848,22.4824462 17.7449469,22.5301207 16.8103332,22.6201168 C16.7327411,21.7747579 16.6924395,20.8966911 16.6924395,20.000964 C16.6924395,19.1052368 16.7327411,18.22717 16.8099281,17.3807457 C17.7449469,17.4718072 18.7207848,17.5194817 19.7244629,17.5194817 C20.9056818,17.5194817 22.04834,17.4534491 23.1306208,17.3301098 Z M20.0336658,9.25193008 L20.0702615,9.25573234 C20.5518922,9.33221385 21.3054838,10.1749985 21.9728631,11.8436118 C22.4080502,12.931687 22.7502651,14.2382302 22.9792131,15.6801778 C21.9410464,15.802399 20.8466134,15.8656507 19.7244629,15.8656507 C18.7961638,15.8656507 17.886833,15.8223648 17.0120336,15.7395956 C17.2409647,14.2725872 17.586437,12.9459774 18.0273397,11.8436118 C18.728088,10.0915678 19.5238853,9.24999995 20.0001014,9.24999995 L19.9737427,9.25136863 C19.9937266,9.25153574 20.013701,9.2517229 20.0336658,9.25193008 Z M17.4636914,9.33728909 C16.5163253,10.7489537 15.7729722,12.9273935 15.3706154,15.5301165 C13.9412714,15.302785 12.6466618,14.9625283 11.5671108,14.5307506 C11.2350003,14.3979196 10.9356046,14.2616732 10.6684543,14.1248357 C12.113905,11.8337545 14.3790025,10.1124932 17.0518038,9.3727224 L17.1745736,9.36149355 L17.1745736,9.36149355 Z M22.5733406,9.38964004 C22.8086334,9.41310375 23.041348,9.4394333 23.2711777,9.46855376 C25.7163522,10.2270447 27.7972798,11.8145468 29.185569,13.9023995 C28.8277321,14.1132357 28.3936207,14.3260486 27.881815,14.5307506 C26.9389928,14.9078422 25.8321382,15.2151275 24.6152922,15.4394028 C24.2161092,12.9162674 23.4955547,10.7989668 22.5798669,9.4026448 Z" fill="#000"></path>
</g>
</svg>
